<svg width="317" height="161" viewBox="0 0 317 161" fill="none" xmlns="http://www.w3.org/2000/svg">
<path d="M142.259 91.997C142.844 94.0124 143.431 96.0275 144.016 98.0435C144.236 98.8017 144.545 99.5449 144.649 100.324C145.054 103.353 146.52 105.977 147.03 108.962C147.27 110.369 147.576 111.768 148.152 113.05C148.493 113.809 148.815 114.638 149.324 115.226C150.581 116.678 151.957 117.989 153.256 119.392C155.546 121.865 157.815 124.364 160.089 126.856C160.228 127.008 160.334 127.199 160.459 127.378C159.708 128.663 159.087 130.011 157.738 130.553C157.517 130.641 157.28 130.94 157.204 131.202C156.825 132.504 155.986 132.722 154.938 132.721C111.065 132.708 67.1915 132.712 23.3181 132.685C22.7396 132.684 22.0276 132.482 21.607 132.064C20.1352 130.601 18.7641 129.001 17.1827 127.264C17.6725 127.23 17.9704 127.21 18.4381 127.19C28.862 127.194 39.116 127.198 49.3578 127.29C49.3156 127.486 49.2938 127.598 49.2545 127.701C48.714 129.113 48.9141 130.29 49.8288 131.066C50.7701 131.864 51.8734 131.705 52.8372 130.596C53.5357 129.793 54.2076 128.959 54.9511 128.107C55.3636 127.704 55.7164 127.332 56.1288 127.027C56.547 127.126 56.9056 127.186 57.2642 127.186C63.6022 127.192 69.9401 127.19 76.3376 127.257C76.5907 127.355 76.7843 127.416 76.9779 127.416C84.5391 127.421 92.1005 127.438 99.6616 127.398C100.654 127.393 101.644 127.095 102.717 126.939C103.067 126.93 103.336 126.915 103.659 126.977C103.934 127.099 104.157 127.188 104.379 127.183C107.232 127.116 110.086 127.041 112.939 126.948C113.144 126.941 113.345 126.771 113.622 126.669C113.896 126.666 114.095 126.672 114.352 126.754C115.581 126.854 116.755 126.913 117.927 126.893C118.875 126.878 119.554 126.265 120.105 125.405C121.412 123.367 122.706 121.316 124.075 119.336C124.376 118.9 124.968 118.734 125.48 118.493C125.891 119.358 126.278 120.159 126.597 120.995C126.872 121.717 126.988 122.535 127.336 123.197C127.496 123.501 128.1 123.743 128.395 123.63C128.716 123.508 129.127 122.936 129.119 122.571C129.101 121.813 128.943 120.997 128.646 120.322C127.991 118.831 127.214 117.413 126.552 115.925C127.414 114.616 128.252 113.379 128.989 112.064C129.35 111.418 129.777 111.243 130.395 111.394C130.8 112.701 131.368 113.615 132.618 113.85C134.261 114.159 135.881 114.633 137.509 115.043C138.121 115.197 138.73 115.372 139.574 115.601C139.4 114.907 139.335 114.543 139.219 114.203C138.636 112.507 138.019 110.827 137.455 109.123C136.787 107.105 136.161 105.069 135.571 102.982C135.933 102.143 136.173 101.309 136.569 100.591C137.099 99.6331 137.749 98.7636 138.35 97.8593C139.652 95.9041 140.956 93.951 142.259 91.997Z" fill="#0E1A21"/>
<path d="M49.3701 127.202C39.116 127.198 28.862 127.194 18.5147 127.189C19.7506 126.226 21.0682 125.241 22.4114 124.306C25.6482 122.052 28.8904 119.808 32.1468 117.593C32.7477 117.184 33.1456 116.709 33.2817 115.887C33.4235 115.031 33.6721 114.199 33.8825 113.186C33.9941 112.825 34.0727 112.607 34.2042 112.448C36.045 110.221 37.8756 107.983 39.7494 105.794C40.355 105.087 40.7478 104.355 40.8572 103.335C41.055 101.489 41.3506 99.6568 41.6339 97.8246C42.4205 92.7376 43.1977 87.6481 44.0402 82.5734C44.1861 81.6945 44.6328 80.8829 44.9631 80.137C44.7068 82.2744 44.4482 84.3192 44.1431 86.3546C43.8614 88.2344 43.514 90.1009 43.2245 91.9792C42.9066 94.0411 42.6097 96.1077 42.3263 98.1764C42.0712 100.039 41.8131 101.902 41.6199 103.774C41.4715 105.211 42.4039 106.063 43.0627 106.217C44.389 106.526 45.3961 105.918 45.7685 104.513C45.9865 103.69 46.068 102.817 46.1989 101.965C46.9816 96.8643 47.7606 91.763 48.5414 86.6622C49.0546 83.31 49.5798 79.9602 50.0794 76.6054C50.5721 73.2976 51.0174 69.98 51.5445 66.6799C51.6128 66.2523 51.976 65.74 52.3201 65.5417C59.4889 61.4107 66.6728 57.3148 73.8644 53.2373C74.1439 53.0788 74.5776 53.0327 74.8571 53.1664C78.5094 54.9124 82.1469 56.7004 85.7777 58.5535C84.7643 60.0759 83.6936 61.4679 82.7822 62.9886C82.1797 63.9938 81.5689 64.0596 80.6974 63.6323C79.2729 62.9338 77.8295 62.2848 76.3801 61.6588C76.1164 61.5449 75.7855 61.6407 75.4159 61.6312C75.0354 61.643 74.678 61.553 74.4208 61.6997C68.1189 65.2943 61.8247 68.9072 55.5436 72.5503C55.2474 72.7221 54.9363 73.1735 54.8831 73.5433C54.5761 75.6776 54.3407 77.8259 54.0886 79.9707C53.7745 82.6428 53.4644 85.3156 53.1587 87.989C52.8701 90.513 52.5888 93.0381 52.3056 95.563C52.0098 98.2003 51.713 100.838 51.4215 103.476C51.1843 105.623 50.9542 107.772 50.6526 109.948C48.6837 110.33 48.4265 113.227 49.6739 114.582C50.4955 115.474 51.2959 116.393 52.1296 117.372C52.8778 118.238 53.6021 119.032 54.3355 119.901C54.5325 120.231 54.7205 120.484 54.824 120.623C52.9736 122.855 51.1718 125.029 49.3701 127.202Z" fill="#142128"/>
<path d="M105.008 38.6328C106.749 39.7769 108.49 40.9208 110.23 42.0665C110.287 42.1039 110.329 42.1828 110.388 42.2033C112.603 42.9752 113.288 45.0775 113.924 47.3709C115.094 51.5853 116.422 55.7403 117.69 59.918C117.74 60.0847 117.841 60.2307 117.987 60.5242C119.117 58.6027 120.183 56.7818 121.256 54.9668C121.702 54.2119 122.123 53.4268 122.641 52.7439C122.825 52.5012 123.353 52.3194 123.576 52.4501C126.629 54.2442 129.66 56.0917 132.685 57.9503C132.888 58.0749 133.067 58.3671 133.147 58.6268C133.434 59.56 133.674 60.5127 133.869 61.5603C133.689 61.7878 133.553 61.8964 133.457 62.0408C128.923 68.8845 124.401 75.7384 119.853 82.5693C119.248 83.4772 118.516 84.2707 117.788 85.0708C116.793 82.9261 115.905 80.7931 114.886 78.7475C114.514 78.0003 113.923 77.271 113.277 76.8582C109.68 74.5568 106.033 72.3595 102.41 70.113C102.01 69.865 101.557 69.6163 101.286 69.2223C98.5106 65.1926 95.7681 61.1327 93.0854 57.0502C93.3021 56.8693 93.4769 56.7434 93.594 56.5662C96.8069 51.7033 100.029 46.8482 103.21 41.9577C103.887 40.9172 104.413 39.7445 105.008 38.6328Z" fill="#111E25"/>
<path d="M93.0165 57.0813C95.7681 61.1327 98.5106 65.1926 101.286 69.2223C101.557 69.6163 102.01 69.865 102.41 70.113C106.033 72.3595 109.68 74.5568 113.277 76.8582C113.923 77.271 114.514 78.0003 114.886 78.7475C115.905 80.7931 116.793 82.9261 117.8 85.1516C118.088 85.7553 118.31 86.2319 118.534 86.7673C118.609 86.9565 118.682 87.087 118.779 87.2966C120.24 90.6064 121.672 93.8398 123.114 97.0668C124.413 99.9746 125.721 102.878 127.032 105.778C127.657 107.162 127.367 108.64 126.312 109.355C125.218 110.097 123.953 109.669 123.268 108.319C123.118 108.023 122.992 107.711 122.855 107.407C120.232 101.592 117.608 95.7771 114.968 89.8896C113.77 87.1721 112.605 84.5169 111.39 81.8928C111.189 81.4591 110.82 81.0537 110.444 80.8179C106.824 78.5479 103.175 76.3382 99.5621 74.0544C98.9476 73.666 98.3691 73.0925 97.9287 72.4594C95.2974 68.6766 92.7161 64.8468 90.1029 61.0468C89.8437 60.6699 89.5269 60.2753 89.1612 60.0814C88.0568 59.496 86.9152 59.0054 85.7881 58.4778C82.1469 56.7004 78.5094 54.9124 74.8571 53.1664C74.5776 53.0328 74.1439 53.0788 73.8644 53.2373C66.6728 57.3149 59.4889 61.4107 52.3201 65.5417C51.976 65.74 51.6128 66.2523 51.5445 66.6799C51.0174 69.98 50.5721 73.2976 50.0794 76.6054C49.5798 79.9602 49.0546 83.31 48.5414 86.6622C47.7606 91.763 46.9816 96.8643 46.1989 101.965C46.068 102.817 45.9865 103.69 45.7685 104.513C45.3961 105.918 44.389 106.526 43.0627 106.217C42.4039 106.063 41.4715 105.211 41.6199 103.774C41.8131 101.902 42.0712 100.039 42.3263 98.1764C42.6096 96.1077 42.9066 94.0411 43.2245 91.9792C43.514 90.1009 43.8614 88.2344 44.1431 86.3546C44.4482 84.3192 44.7068 82.2744 45.0003 80.0511C45.1813 78.9076 45.3695 77.9508 45.5092 76.9846C45.7385 75.399 45.9363 73.8074 46.1474 72.2183C46.6145 69.3089 47.0555 66.3932 47.5724 63.4958C47.6684 62.9575 47.9678 62.2755 48.3493 62.0326C49.794 61.1132 51.3111 60.3471 52.9366 59.4726C59.6852 55.6505 66.3021 51.8881 72.907 48.0978C73.7988 47.5861 74.6091 47.5304 75.5443 47.9892C80.8142 50.5745 86.1093 53.0908 91.3766 55.6832C91.9842 55.9823 92.4728 56.6074 93.0165 57.0813Z" fill="#F4F9F9"/>
<path d="M195 43.8283C195 56.927 195 69.8428 195 82.8658C192.085 82.8658 189.233 82.8658 186.077 82.8658C186.246 69.6877 186.414 56.4891 186.58 43.5346C185.412 47.7725 184.159 52.288 182.923 56.8098C181.047 63.6659 179.184 70.5264 177.314 77.3847C176.949 78.7232 176.453 80.0327 176.25 81.4056C176.06 82.6915 175.59 83.0352 174.576 82.9972C172.456 82.9179 170.331 82.9267 168.21 82.9962C167.368 83.0238 167.018 82.6823 166.774 81.7052C164.482 72.5464 162.146 63.4036 159.816 54.2588C158.977 50.9671 158.12 47.6824 157.24 44.2751C157.24 57.1826 157.24 69.9545 157.24 82.8499C154.605 82.8499 151.853 82.8499 149 82.8499C149 65.7058 149 48.4879 149 31.0239C149.567 31.0239 150.2 31.0239 150.833 31.0239C154.067 31.0239 157.302 31.0586 160.536 31.0005C161.384 30.9852 161.716 31.3434 161.961 32.3042C165.065 44.4751 168.206 56.632 171.343 68.7906C171.457 69.2305 171.619 69.6521 171.801 70.2155C173.828 62.8186 175.811 55.5756 177.798 48.3347C179.266 42.9852 180.776 37.6516 182.179 32.2776C182.422 31.347 182.683 31.001 183.474 31.0083C187.258 31.0432 191.042 31.0239 195 31.0239C195 35.2834 195 39.4644 195 43.8283Z" fill="#EEF8FA"/>
<path d="M93.0854 57.0502C92.4728 56.6074 91.9842 55.9823 91.3766 55.6832C86.1093 53.0908 80.8142 50.5745 75.5443 47.9892C74.6091 47.5304 73.7988 47.5861 72.907 48.0978C66.3021 51.8881 59.6852 55.6505 52.9981 59.4324C53.7125 57.9079 54.6324 56.4416 55.2612 54.8228C56.4833 51.6762 59.077 50.5385 61.3444 48.9414C68.8222 43.6741 76.3327 38.4693 83.8307 33.2406C85.8315 31.8454 87.8164 30.4175 89.8488 29.0873C90.2016 28.8564 90.858 28.8321 91.2005 29.0617C95.755 32.1136 100.279 35.2277 104.808 38.329C104.863 38.3662 104.899 38.4387 104.976 38.5637C104.413 39.7445 103.887 40.9172 103.21 41.9577C100.029 46.8482 96.807 51.7033 93.594 56.5662C93.4769 56.7434 93.3021 56.8693 93.0854 57.0502Z" fill="#142129"/>
<path d="M114.985 89.9623C117.608 95.7771 120.232 101.592 122.855 107.407C122.992 107.711 123.118 108.023 123.268 108.319C123.953 109.669 125.218 110.097 126.312 109.355C127.367 108.64 127.657 107.162 127.032 105.778C125.721 102.878 124.413 99.9746 123.114 97.0668C121.672 93.8398 120.24 90.6064 118.838 87.2662C118.759 87.0073 118.646 86.8579 118.532 86.7085C118.31 86.2319 118.088 85.7553 117.855 85.1979C118.516 84.2707 119.248 83.4772 119.853 82.5693C124.401 75.7384 128.923 68.8845 133.457 62.0408C133.553 61.8964 133.689 61.7878 133.873 61.6501C134.479 63.7669 135 65.9025 135.563 68.0226C135.873 69.1867 136.278 70.3162 136.601 71.4758C138.491 78.2537 140.369 85.0359 142.255 91.9068C140.956 93.951 139.652 95.9041 138.35 97.8593C137.749 98.7636 137.099 99.6331 136.569 100.591C136.173 101.309 135.933 102.143 135.515 102.933C135.341 102.808 135.26 102.683 135.213 102.542C133.012 95.9729 130.807 89.4056 128.621 82.8297C127.985 80.9161 127.405 78.9773 126.849 76.9953C126.866 76.6459 126.894 76.3189 126.79 76.0632C126.583 75.5532 126.305 75.0825 126.056 74.5955C125.734 74.9788 125.308 75.3008 125.111 75.7566C124.465 77.2536 123.844 78.7732 123.327 80.3346C122.941 81.4992 122.73 82.742 122.433 84.0348C122.328 85.1369 121.468 85.9015 121.913 87.1378C123.799 92.3825 125.607 97.665 127.444 102.934C128.418 105.729 129.392 108.525 130.366 111.32C129.777 111.243 129.35 111.418 128.989 112.064C128.252 113.379 127.414 114.616 126.508 115.876C124.883 113.635 123.042 111.9 120.741 110.866C119.095 110.125 117.45 109.383 115.869 108.588C115.883 108.071 115.926 107.559 115.769 107.151C114.626 104.184 113.429 101.244 112.279 98.2798C111.917 97.3464 111.645 96.3657 111.342 95.3324C111.479 94.9385 111.607 94.6189 111.803 94.2913C112.91 92.843 113.947 91.4026 114.985 89.9623Z" fill="#0F1B22"/>
<path d="M214.409 82.957C210.831 82.3324 207.7 80.9359 205.147 77.7719C202.837 74.9096 201.634 71.4011 201.24 67.5183C200.796 63.1358 200.917 58.7391 202.034 54.4554C203.845 47.507 208.595 43.0921 214.553 43.0105C217.118 42.9754 219.645 42.952 222.108 44.2738C225.927 46.3233 228.378 49.7735 229.124 54.8103C229.648 58.3517 229.714 61.9992 230 65.8139C223.055 65.8139 216.43 65.8139 209.792 65.8139C210.114 68.397 210.532 70.6271 212.026 72.5231C213.64 74.5721 215.681 75.1024 217.606 74.9567C220.371 74.7477 223.099 73.7101 225.829 72.9497C226.527 72.7554 227.173 72.2731 227.943 71.8706C227.943 74.7147 227.943 77.4678 227.943 80.2804C223.79 83.2931 219.155 83.04 214.409 82.957ZM220.624 54.2504C220.004 51.4137 217.223 50.1096 214.419 50.9146C211.662 51.7062 210.408 54.072 210.11 58.5907C213.889 58.5907 217.666 58.5907 221.736 58.5907C221.386 57.0757 221.083 55.7647 220.624 54.2504Z" fill="#EEF8FA"/>
<path d="M287.952 81.7457C282.365 83.4729 276.914 83.4462 271.477 81.4798C270.52 81.1338 270.068 80.6294 270.117 79.3067C270.207 76.8594 270.143 74.4036 270.143 71.8557C273.861 73.5143 277.408 75.1799 281.282 75.0584C282.072 75.0337 282.967 75.0239 283.613 74.5741C284.27 74.1168 285.065 73.1482 285.097 72.3603C285.137 71.3991 284.66 69.9191 284.031 69.4891C281.482 67.748 278.743 66.4308 276.163 64.7523C273.637 63.1085 271.13 61.3831 270.382 57.4901C269.135 50.9974 270.863 45.6681 276.744 43.9141C282.246 42.2731 287.695 42.831 292.917 45.673C293.166 45.8085 293.476 46.4557 293.401 46.7002C292.668 49.0863 291.858 51.4374 291.045 53.8765C289.35 53.1365 287.855 52.4079 286.32 51.8322C284.384 51.1055 282.399 50.4925 280.389 51.3522C279.813 51.5987 279.001 52.169 278.921 52.725C278.812 53.4837 279.099 54.7856 279.57 55.13C281.435 56.495 283.453 57.543 285.386 58.7749C287.283 59.9838 289.315 61.0041 290.988 62.5835C294.449 65.8507 294.408 70.4342 293.421 75.0814C292.698 78.4831 290.474 80.2472 287.952 81.7457Z" fill="#EEF8FA"/>
<path d="M46.0872 72.2523C45.9363 73.8074 45.7385 75.399 45.5092 76.9846C45.3695 77.9508 45.1813 78.9076 44.9777 79.9544C44.6328 80.8829 44.1861 81.6945 44.0402 82.5734C43.1977 87.6482 42.4205 92.7376 41.6339 97.8246C41.3506 99.6568 41.055 101.489 40.8571 103.335C40.7478 104.355 40.355 105.087 39.7494 105.794C37.8756 107.983 36.045 110.221 34.2042 112.448C34.0727 112.607 33.9941 112.825 33.8825 113.096C32.2037 115.05 30.5332 116.922 28.6604 119.022C28.817 118.351 28.8851 117.99 28.9848 117.642C30.7575 111.452 32.5259 105.26 34.3131 99.0751C35.2743 95.7489 36.147 92.3771 37.3005 89.1417C37.875 87.5306 38.9339 86.1275 39.8784 84.7253C41.0035 83.0549 41.7694 81.2556 42.3461 79.2205C42.8566 77.4188 43.9285 75.8246 44.796 74.1695C45.147 73.4999 45.6132 72.9117 46.0872 72.2523Z" fill="#14232B"/>
<path d="M234 40.7432C234 36.7434 234 32.9231 234 29C237.015 29 239.966 29 243 29C243 46.9527 243 64.9246 243 83C240.068 83 237.117 83 234 83C234 68.9874 234 54.955 234 40.7432Z" fill="#EEF8FA"/>
<path d="M188.804 92.832C188.804 90.254 188.804 87.6759 188.804 85C190.231 85 191.581 85 193 85C193 93.5867 193 102.12 193 110.796C191.958 110.796 190.891 110.796 189.785 110.796C189.59 110.223 189.359 109.545 189.066 108.685C187.855 110.265 186.576 110.989 184.9 111C182.431 111.016 180.583 109.799 179.742 106.415C178.693 102.189 178.518 97.8598 180.808 94.1114C181.47 93.0281 182.671 92.1548 183.74 91.8629C185.326 91.4299 187.011 91.6304 188.573 93.0962C188.807 93.3022 188.913 93.3375 189.018 93.3729C188.947 93.1926 188.876 93.0123 188.804 92.832ZM188.83 98.8722C188.642 97.2938 188 96.2867 186.682 96.1112C185.34 95.9326 184.41 96.6278 183.939 98.222C183.326 100.3 183.358 102.411 183.918 104.49C184.322 105.992 185.126 106.694 186.466 106.644C187.759 106.595 188.579 105.858 188.767 104.385C188.988 102.654 188.93 100.866 188.83 98.8722Z" fill="#35D2CA"/>
<path d="M265.214 95.953C264.369 96.3638 263.614 96.6768 262.749 97.035C262.303 95.9075 261.836 94.7265 261.264 93.2796C262.213 92.8655 263.065 92.2277 263.942 92.1644C265.95 92.0194 268.01 91.8398 269.974 92.2657C271.929 92.69 272.845 94.94 272.923 97.3476C273.067 101.753 272.964 106.173 272.964 110.561C270.549 111.244 270.368 111.14 269.161 108.354C267.496 111.443 265.073 111.304 262.762 110.536C260.351 109.735 259.794 106.859 260.061 104.031C260.311 101.383 262.332 99.3915 264.513 99.336C265.923 99.3001 267.334 99.3292 268.729 99.3292C268.968 96.1371 268.255 95.452 265.214 95.953ZM268.832 103.702C268.832 103.244 268.832 102.786 268.832 102.079C267.652 102.293 266.615 102.358 265.632 102.692C264.58 103.049 264.327 104.218 264.434 105.5C264.539 106.75 265.227 106.898 266.031 106.886C267.567 106.862 268.275 106.165 268.832 103.702Z" fill="#8E7BCB"/>
<path d="M175.601 109.527C171.778 111.385 168.032 111.858 164.781 108.727C163.595 107.585 162.584 105.792 162.305 104.143C161.824 101.301 161.753 98.3207 163.288 95.6285C164.581 93.3609 166.501 92.2077 168.927 92.0616C170.354 91.9757 171.848 91.9297 173.222 92.2724C176.68 93.1351 178.421 95.8882 178.842 99.354C179.3 103.129 178.916 106.839 175.601 109.527ZM173.556 99.0359C172.53 96.4069 172.209 96.188 170.081 96.2769C168.182 96.3563 167.472 97.8338 167.315 99.3564C167.135 101.107 167.335 102.956 167.68 104.694C167.933 105.967 168.991 106.539 170.313 106.595C171.674 106.652 172.856 106.168 173.142 104.857C173.533 103.074 173.468 101.179 173.556 99.0359Z" fill="#35D2CA"/>
<path d="M159.977 105.525C161.088 108.104 160.488 110.204 158.42 110.574C156.561 110.907 154.597 111.22 152.784 110.792C150.27 110.199 148.472 108.02 147.719 104.707C146.63 99.9154 146.592 95.2598 148.915 90.9485C150.042 88.8558 151.581 87.5925 153.493 87.2168C156.078 86.7086 158.591 87.048 161 88.7248C160.558 90.1697 160.145 91.5162 159.765 92.7598C158.429 92.3611 157.115 91.7269 155.777 91.6226C153.377 91.4357 151.496 93.6564 151.362 96.779C151.279 98.6953 151.37 100.666 151.627 102.556C152.091 105.96 154.114 107.044 156.366 106.751C157.553 106.596 158.705 105.989 159.977 105.525Z" fill="#35D2CA"/>
<path d="M248.891 95.7632C248.508 98.5413 248.289 101.179 249.239 103.71C250.156 106.152 252.071 107.327 255.637 106.273C256.486 106.022 257.317 105.684 258.355 105.315C258.355 106.634 258.389 107.866 258.331 109.091C258.317 109.383 258.044 109.826 257.817 109.91C254.436 111.163 251.037 111.718 247.797 109.443C245.26 107.661 244.393 104.555 244.109 101.328C243.802 97.8283 244.072 94.3709 245.829 91.2757C247.154 88.9405 248.949 87.5158 251.184 87.1651C253.846 86.7472 256.494 87.0706 259 88.7363C258.535 90.1459 258.094 91.4859 257.611 92.949C255.557 91.9775 253.384 90.6254 251.247 92.0033C250.225 92.6615 249.676 94.3812 248.891 95.7632Z" fill="#8E7BCB"/>
<path d="M205 95.1166C205 94.0958 205 93.2538 205 92.4325C207.545 91.754 207.99 91.9669 208.879 94.3143C210.976 91.5303 213.592 91.6469 216.143 92.6486C218.027 93.3885 218.925 95.5118 218.964 97.9627C219.032 102.264 218.983 106.568 218.983 111C217.548 111 216.174 111 214.613 111C214.613 107.351 214.634 103.674 214.606 99.9976C214.585 97.2418 213.2 95.8729 211.271 96.6246C210.134 97.0679 209.384 98.7019 209.375 100.851C209.362 104.186 209.372 107.52 209.372 110.993C207.953 110.993 206.578 110.993 205 110.993C205 105.798 205 100.547 205 95.1166Z" fill="#32CFC7"/>
<path d="M283.096 102.435C284.03 99.2292 284.922 96.1567 285.907 93.1268C286.058 92.6603 286.614 92.1228 287.019 92.0774C288.247 91.9398 289.494 92.0276 291 92.0276C290.279 94.447 289.661 96.6928 288.943 98.8929C287.754 102.538 286.53 106.167 285.243 109.764C285.064 110.266 284.462 110.846 284.026 110.882C280.323 111.186 280.259 111.18 278.967 107.352C277.279 102.347 275.7 97.2903 274 92.0281C275.506 92.0281 276.89 91.941 278.257 92.0838C278.642 92.1241 279.158 92.7611 279.307 93.2555C280.296 96.5358 281.199 99.8524 282.136 103.155C282.262 103.6 282.418 104.033 282.6 104.597C282.787 103.817 282.935 103.2 283.096 102.435Z" fill="#8D7ACA"/>
<path d="M254.848 42.3819C254.63 39.8234 254.396 37.4402 254.205 35.0525C254.101 33.7378 254.069 32.4157 254 31C256.854 31 259.808 31 263 31C262.884 33.7353 262.806 36.4883 262.64 39.2347C262.477 41.9358 262.144 44.6259 262.035 47.3285C261.928 49.9956 262.01 50.0015 259.744 49.9999C258.39 49.999 257.036 49.9937 255.682 49.984C255.58 49.9832 255.48 49.9305 255.224 49.8582C255.101 47.4594 254.975 45.0074 254.848 42.3819Z" fill="#35D2CA"/>
<path d="M291.603 106C290.576 101.558 290.63 97.3121 293.615 94.0022C295.926 91.4401 298.819 91.6833 301.45 92.8135C303.961 93.892 305.003 96.6717 305 99.9754C304.999 100.93 305 101.885 305 103.09C302.108 103.09 299.282 103.085 296.456 103.094C295.855 103.096 295.017 102.881 295.528 104.414C294.166 105.049 292.884 105.525 291.603 106ZM298.734 99.4802C299.442 99.4802 300.151 99.4802 300.875 99.4802C300.595 96.7784 299.754 95.9466 297.735 96.2285C296.392 96.4161 295.679 97.6249 295.885 99.4802C296.734 99.4802 297.595 99.4802 298.734 99.4802Z" fill="#8D7ACA"/>
<path d="M234.991 98C235.005 101.221 235.019 104.442 234.885 107.83C233.287 108.366 231.837 108.736 230.388 109.107C227.939 111.292 224.691 111.729 222.606 109.66C221.506 108.569 220.888 106.745 220.253 105.145C219.913 104.288 219.999 103.206 220.042 102.076C221.724 101.807 223.257 101.688 224.811 101.722C224.836 102.409 224.762 102.962 224.859 103.472C225.137 104.935 225.609 106.33 227.107 106.548C229.185 106.85 230.162 106.217 230.531 104.021C230.8 102.426 230.642 100.736 230.8 99.0811C232.281 98.7163 233.636 98.3581 234.991 98Z" fill="#2CC7C0"/>
<path d="M234.979 98.6418C233.6 99.1994 232.242 99.5809 230.661 99.901C230.173 98.4651 229.789 97.1946 228.461 96.9265C226.954 96.6225 225.646 97.112 225.102 98.9593C224.77 100.086 224.844 101.393 224.736 102.619C223.199 102.746 221.662 102.873 220 103C220.192 100.77 220.293 98.4509 220.872 96.328C222.183 91.5232 227.453 90.6999 230.284 93.9535C230.39 94.075 230.533 94.1477 230.82 94.3664C230.907 93.6812 230.98 93.1129 231.064 92.4476C232.299 92.4476 233.564 92.4476 235 92.4476C235 94.4721 235 96.4688 234.979 98.6418Z" fill="#32CFC7"/>
<path d="M201 98.4976C201 102.743 201 106.814 201 111C199.649 111 198.366 111 197 111C197 105.054 197 99.0855 197 93C198.264 93 199.546 93 201 93C201 94.7587 201 96.5406 201 98.4976Z" fill="#32CFC7"/>
<path d="M230.841 109.349C232.183 108.788 233.531 108.394 234.997 108C234.984 110.156 235.09 112.397 234.665 114.448C234.047 117.427 231.998 118.686 229.937 118.907C227.332 119.187 224.684 118.755 222 118.628C222 116.793 222 115.367 222 113.679C223.098 113.961 224.159 114.243 225.223 114.501C225.772 114.634 226.325 114.764 226.88 114.827C229.984 115.177 231.107 113.74 230.841 109.349Z" fill="#27C3BC"/>
<path d="M292 106.418C293.207 105.872 294.428 105.445 295.748 105C296.781 107.952 298.687 107.796 300.784 107.455C301.828 107.286 302.833 106.778 303.922 106.399C303.922 106.97 303.861 107.468 303.933 107.937C304.212 109.755 303.629 110.884 302.033 110.924C299.956 110.975 297.825 111.152 295.814 110.691C294.021 110.281 292.62 108.756 292 106.418Z" fill="#8674C2"/>
<path d="M200.558 85.0628C202.099 86.5078 202.414 88.5987 201.459 90.1377C200.784 91.2259 198.174 91.3758 197.502 90.0557C197.021 89.1094 196.923 87.6062 197.052 86.4283C197.112 85.8801 198.085 85.3693 198.708 85.1102C199.232 84.8926 199.847 85.0647 200.558 85.0628Z" fill="#35D2CA"/>
<path d="M76.2781 127.19C69.9402 127.19 63.6022 127.192 57.2642 127.186C56.9056 127.186 56.547 127.126 56.1552 126.957C57.3325 125.407 58.5594 124.013 59.7481 122.576C60.6659 121.466 60.6677 120.099 59.7909 118.972C59.506 118.606 59.1692 118.294 58.8269 117.889C58.0902 117.025 57.3829 116.228 56.6475 115.363C56.0368 114.584 55.4544 113.874 54.9653 113.162C61.4893 113.161 67.9198 113.153 74.3503 113.169C75.101 113.171 75.8554 113.392 76.6008 113.348C77.5 113.295 78.3914 113.067 79.3549 112.929C79.8275 113.077 80.2314 113.21 80.713 113.362C81.1989 113.305 81.6071 113.23 82.0795 113.187C82.4339 113.2 82.7242 113.18 83.0981 113.16C83.7204 113.237 84.259 113.313 84.857 113.456C85.0767 113.555 85.2366 113.613 85.3973 113.616C89.4104 113.697 93.4237 113.772 97.4368 113.851C97.7511 113.858 98.0652 113.884 98.563 113.912C98.3578 114.422 98.2717 114.786 98.0895 115.066C95.994 118.285 93.8451 121.459 91.7949 124.717C90.8595 126.204 89.8037 126.828 88.1579 126.785C84.4447 126.688 80.7258 126.879 77.0095 126.969C76.7645 126.975 76.5218 127.113 76.2781 127.19Z" fill="#111E25"/>
<path d="M126.8 77.05C127.405 78.9772 127.985 80.9161 128.621 82.8296C130.807 89.4056 133.012 95.9729 135.213 102.542C135.26 102.683 135.341 102.808 135.462 102.99C136.161 105.069 136.787 107.105 137.455 109.123C138.019 110.827 138.636 112.507 139.219 114.203C139.335 114.543 139.4 114.907 139.574 115.601C138.73 115.372 138.121 115.197 137.509 115.043C135.881 114.633 134.261 114.159 132.618 113.85C131.368 113.615 130.8 112.701 130.395 111.394C129.392 108.525 128.418 105.729 127.444 102.934C125.607 97.665 123.799 92.3825 121.913 87.1377C121.468 85.9015 122.328 85.1369 122.487 83.9869C123.645 81.108 124.741 78.3618 125.938 75.3588C126.349 76.1656 126.574 76.6078 126.8 77.05Z" fill="#12232A"/>
<path d="M76.3376 127.257C76.5218 127.113 76.7645 126.975 77.0095 126.969C80.7258 126.879 84.4447 126.688 88.1579 126.785C89.8037 126.828 90.8595 126.204 91.7949 124.717C93.8451 121.459 95.994 118.285 98.0895 115.066C98.2717 114.786 98.3578 114.422 98.563 113.912C98.0652 113.884 97.7511 113.858 97.4368 113.851C93.4237 113.772 89.4104 113.697 85.3973 113.616C85.2366 113.613 85.0767 113.555 84.9165 113.39C85.2745 113.224 85.6327 113.161 85.9904 113.165C92.9682 113.235 99.9459 113.312 106.907 113.465C106.588 114.254 106.284 114.967 105.925 115.72C104.028 118.283 102.914 121.19 102.406 124.436C102.268 125.316 102.119 126.154 102.636 126.933C101.644 127.095 100.654 127.393 99.6616 127.398C92.1005 127.438 84.5391 127.421 76.9779 127.416C76.7843 127.416 76.5907 127.355 76.3376 127.257Z" fill="#0F1B22"/>
<path d="M105.981 115.68C106.284 114.967 106.588 114.254 106.949 113.396C107.09 113.088 107.193 112.934 107.254 112.76C108.106 110.336 110.045 109.402 111.906 108.675C113.076 108.218 114.496 108.623 115.804 108.642C117.45 109.383 119.095 110.125 120.741 110.866C123.042 111.9 124.883 113.635 126.443 115.916C127.214 117.413 127.991 118.831 128.646 120.322C128.943 120.997 129.101 121.813 129.119 122.571C129.127 122.936 128.717 123.508 128.395 123.63C128.1 123.743 127.496 123.501 127.336 123.197C126.988 122.535 126.872 121.717 126.597 120.995C126.278 120.159 125.891 119.358 125.461 118.417C124.316 116.434 123.081 114.775 121.262 113.772C121.197 113.741 121.153 113.752 121.108 113.763C121.139 113.812 121.169 113.861 121.205 114C122.36 118.202 121.664 121.749 118.803 124.623C117.511 125.92 115.934 126.395 114.295 126.678C114.095 126.672 113.896 126.666 113.552 126.625C112.581 126.402 111.715 126.339 110.936 126.002C108.81 125.082 107.519 123.163 106.614 120.827C106.461 120.433 106.198 120.096 105.986 119.738C105.986 119.743 105.99 119.723 106.058 119.69C106.152 119.547 106.178 119.437 106.2 119.223C106.125 117.972 106.053 116.826 105.981 115.68ZM109.566 111.424C107.909 113.114 107.055 115.206 107.144 117.8C107.257 121.072 108.624 123.436 111.147 124.73C113.701 126.039 116.206 125.663 118.359 123.52C120.516 121.372 121.179 118.565 120.469 115.421C119.204 109.821 113.421 107.909 109.566 111.424Z" fill="#6B5EA2"/>
<path d="M56.6757 115.431C57.3829 116.228 58.0902 117.025 58.8162 117.973C57.6024 120.947 56.3549 123.762 55.1528 126.602C54.9612 127.055 54.9734 127.623 54.8914 128.139C54.2076 128.959 53.5357 129.793 52.8372 130.596C51.8734 131.705 50.7701 131.864 49.8288 131.066C48.9141 130.29 48.714 129.113 49.2545 127.701C49.2939 127.598 49.3156 127.486 49.3578 127.29C51.1718 125.029 52.9736 122.855 54.824 120.623C54.7205 120.484 54.5325 120.231 54.4022 119.89C54.6303 119.587 54.8455 119.401 54.9636 119.152C55.5484 117.921 56.1075 116.673 56.6757 115.431Z" fill="#23BDB6"/>
<path d="M121.281 113.813C123.081 114.775 124.316 116.434 125.407 118.368C124.968 118.734 124.376 118.9 124.075 119.336C122.706 121.316 121.412 123.367 120.105 125.405C119.554 126.265 118.875 126.878 117.927 126.893C116.755 126.913 115.581 126.854 114.352 126.754C115.934 126.395 117.511 125.92 118.803 124.623C121.664 121.749 122.36 118.202 121.225 113.976C121.241 113.862 121.281 113.813 121.281 113.813Z" fill="#0F1B22"/>
<path d="M105.986 119.732C106.198 120.096 106.461 120.433 106.614 120.827C107.519 123.163 108.81 125.082 110.936 126.002C111.715 126.339 112.581 126.402 113.478 126.634C113.345 126.771 113.144 126.941 112.939 126.948C110.086 127.041 107.232 127.116 104.379 127.183C104.157 127.188 103.934 127.099 103.7 126.915C103.919 126.136 104.17 125.503 104.378 124.853C104.924 123.15 105.452 121.439 105.986 119.732Z" fill="#0F1B22"/>
<path d="M105.986 119.738C105.452 121.439 104.924 123.15 104.378 124.853C104.17 125.503 103.919 126.136 103.647 126.838C103.336 126.915 103.067 126.93 102.717 126.939C102.119 126.154 102.268 125.316 102.406 124.436C102.914 121.19 104.028 118.283 105.925 115.72C106.053 116.826 106.125 117.972 106.143 119.27C106.055 119.522 106.022 119.623 105.99 119.723C105.99 119.723 105.986 119.743 105.986 119.738Z" fill="#7366A9"/>
<path d="M54.9511 128.107C54.9734 127.623 54.9612 127.055 55.1528 126.602C56.3549 123.762 57.6024 120.947 58.8455 118.041C59.1692 118.294 59.506 118.606 59.7909 118.972C60.6677 120.099 60.6659 121.466 59.7481 122.576C58.5594 124.013 57.3325 125.407 56.0956 126.89C55.7164 127.332 55.3636 127.704 54.9511 128.107Z" fill="#19B1AB"/>
<path d="M115.869 108.588C114.496 108.623 113.076 108.218 111.906 108.675C110.045 109.402 108.106 110.336 107.254 112.76C107.193 112.934 107.09 113.088 106.965 113.32C99.9459 113.312 92.9682 113.235 85.9904 113.165C85.6327 113.161 85.2745 113.224 84.857 113.323C84.259 113.313 83.7204 113.237 83.0656 113.104C82.8363 112.926 82.7234 112.805 82.6375 112.611C82.9733 111.922 83.408 111.347 83.5721 110.681C86.312 99.5706 89.0169 88.4485 91.7332 77.3301C92.1484 75.6305 91.8873 74.6586 90.6169 73.4641C90.0916 73.2442 89.632 72.9615 89.1614 72.9346C87.7215 72.8523 86.8586 73.7276 86.3749 75.6985C83.6764 86.6942 80.9997 97.6972 78.2804 108.686C77.8573 110.396 78.1351 111.766 79.2861 112.914C78.3914 113.067 77.5 113.295 76.6008 113.348C75.8554 113.392 75.101 113.171 74.3503 113.169C67.9198 113.153 61.4893 113.161 54.9266 113.154C54.7495 113.116 54.702 113.09 54.6147 113.003C54.0918 112.364 53.5848 111.815 53.1264 111.216C52.4796 110.371 51.7301 109.834 50.7209 109.92C50.9542 107.772 51.1842 105.623 51.4215 103.476C51.713 100.838 52.0098 98.2003 52.3056 95.563C52.5888 93.0381 52.8701 90.513 53.1587 87.989C53.4644 85.3156 53.7745 82.6428 54.0886 79.9707C54.3407 77.8259 54.5761 75.6776 54.8831 73.5433C54.9363 73.1735 55.2474 72.7221 55.5436 72.5503C61.8247 68.9072 68.1189 65.2943 74.4208 61.6997C74.678 61.553 75.0354 61.643 75.4613 61.6927C78.7435 63.2341 81.9191 64.6817 85.0729 66.1905C86.1234 66.6931 87.4319 67.0574 88.0844 67.9916C90.9285 72.0636 93.5745 76.3222 96.2755 80.6036C95.9129 81.9822 96.0334 83.2068 96.8289 84.2048C97.7171 85.3193 98.6921 86.3407 99.6575 87.4737C100.663 88.6548 101.641 89.7647 102.645 90.9444C103.446 91.8264 104.219 92.6387 105.001 93.4598C104.666 93.8716 104.535 94.0416 104.396 94.2029C101.9 97.1008 99.3917 99.9841 96.9125 102.901C95.7922 104.219 95.8139 106.589 96.8974 107.773C97.9669 108.941 99.7422 108.79 100.914 107.403C104.427 103.383 107.879 99.3946 111.331 95.4066C111.645 96.3657 111.917 97.3464 112.279 98.2798C113.429 101.244 114.626 104.184 115.769 107.151C115.926 107.559 115.883 108.071 115.869 108.588ZM70.6131 80.0568C69.8078 79.1805 68.9647 78.4329 67.6117 78.8926C67.2367 79.1005 66.7787 79.2108 66.4994 79.5311C63.0517 83.4858 59.6127 87.4511 56.2122 91.4605C55.1503 92.7126 55.1997 94.5199 56.2497 95.8109C57.0624 96.81 57.9409 97.7369 58.8508 98.8363C60.151 100.324 61.4512 101.812 62.8126 103.439C64.0255 104.847 65.2145 106.284 66.4582 107.654C67.5951 108.906 69.2016 108.857 70.2856 107.622C71.3679 106.388 71.4522 104.481 70.3759 103.184C68.8217 101.311 67.1989 99.5153 65.5433 97.5545C64.4004 96.3025 63.2575 95.0506 61.8771 93.5384C63.8331 91.3819 65.6088 89.4243 67.5045 87.393C68.4331 86.3181 69.3786 85.262 70.2856 84.163C71.2718 82.968 71.3772 81.699 70.6131 80.0568Z" fill="#0E1A21"/>
<path d="M96.2924 80.513C93.5745 76.3222 90.9285 72.0636 88.0844 67.9915C87.4319 67.0574 86.1234 66.6931 85.0729 66.1905C81.9191 64.6817 78.7435 63.2341 75.531 61.7012C75.7855 61.6407 76.1164 61.5449 76.3801 61.6588C77.8295 62.2848 79.2728 62.9338 80.6974 63.6323C81.5689 64.0596 82.1797 63.9938 82.7822 62.9886C83.6936 61.4679 84.7643 60.0759 85.7776 58.5535C86.9152 59.0054 88.0568 59.496 89.1612 60.0814C89.5269 60.2753 89.8437 60.6699 90.1029 61.0468C92.7161 64.8468 95.2974 68.6765 97.9287 72.4594C98.3691 73.0925 98.9476 73.666 99.5621 74.0544C103.175 76.3382 106.824 78.5478 110.444 80.8179C110.82 81.0537 111.189 81.4591 111.39 81.8928C112.605 84.5168 113.77 87.172 114.968 89.8896C113.947 91.4026 112.91 92.843 111.797 94.1943C111.483 93.2189 111.41 92.1922 110.965 91.4793C110.317 90.4417 109.4 89.63 108.568 88.6555C107.511 87.416 106.484 86.2432 105.424 85.0017C104.489 83.9058 103.586 82.8785 102.651 81.7821C102.156 81.1692 101.695 80.6231 101.229 80.0824C99.4376 78.0043 97.7952 78.1484 96.2924 80.513Z" fill="#121F26"/>
<path d="M50.6526 109.948C51.7301 109.834 52.4796 110.371 53.1264 111.216C53.5848 111.815 54.0918 112.364 54.5388 113.039C54.0277 114.082 53.579 115.038 53.0724 115.951C52.8017 116.44 52.4312 116.853 52.1057 117.301C51.2959 116.393 50.4955 115.474 49.6739 114.582C48.4265 113.227 48.6837 110.33 50.6526 109.948Z" fill="#33CDC6"/>
<path d="M52.1296 117.372C52.4312 116.853 52.8017 116.44 53.0724 115.951C53.579 115.038 54.0277 114.082 54.5763 113.107C54.702 113.09 54.7495 113.116 54.8332 113.156C55.4544 113.874 56.0368 114.584 56.6475 115.363C56.1075 116.673 55.5484 117.921 54.9636 119.152C54.8455 119.401 54.6303 119.587 54.3932 119.814C53.6021 119.032 52.8778 118.238 52.1296 117.372Z" fill="#2CC7C0"/>
<path d="M118.534 86.7673C118.646 86.8579 118.759 87.0072 118.814 87.1871C118.682 87.087 118.609 86.9565 118.534 86.7673Z" fill="#111E25"/>
<path d="M108.598 88.722C109.4 89.63 110.317 90.4417 110.965 91.4793C111.41 92.1922 111.483 93.2189 111.728 94.2023C111.607 94.6189 111.479 94.9385 111.342 95.3324C107.879 99.3945 104.427 103.383 100.913 107.315C101.087 106.682 101.319 106.101 101.56 105.525C103.905 99.9236 106.252 94.323 108.598 88.722Z" fill="#1EB8B2"/>
<path d="M126.849 76.9953C126.574 76.6078 126.349 76.1656 125.938 75.3588C124.741 78.3618 123.645 81.108 122.496 83.9021C122.73 82.742 122.941 81.4992 123.327 80.3346C123.844 78.7732 124.465 77.2536 125.111 75.7566C125.308 75.3008 125.734 74.9788 126.056 74.5955C126.305 75.0824 126.583 75.5532 126.79 76.0632C126.894 76.3188 126.866 76.6459 126.849 76.9953Z" fill="#111E25"/>
<path d="M200.084 75.9259C200.171 75.9987 200.221 76.1133 200.27 76.228C200.197 76.2055 200.124 76.183 200.015 76.1098C200.001 76.0286 200.024 75.9982 200.084 75.9259Z" fill="black"/>
<path d="M79.3549 112.929C78.1351 111.766 77.8573 110.396 78.2804 108.686C80.9997 97.6972 83.6764 86.6942 86.3749 75.6985C86.8586 73.7276 87.7215 72.8523 89.1614 72.9346C89.632 72.9615 90.0916 73.2442 90.5443 73.5135C90.0772 75.3215 89.5936 77.0164 89.1716 78.7318C87.5673 85.2539 85.9931 91.786 84.3876 98.3077C83.1524 103.325 81.8872 108.332 80.6353 113.344C80.2314 113.21 79.8275 113.077 79.3549 112.929Z" fill="#806FBB"/>
<path d="M80.713 113.362C81.8871 108.332 83.1524 103.325 84.3876 98.3077C85.9931 91.786 87.5672 85.2539 89.1716 78.7318C89.5936 77.0164 90.0772 75.3215 90.605 73.5677C91.8873 74.6586 92.1484 75.6305 91.7332 77.3301C89.0169 88.4485 86.312 99.5706 83.5721 110.681C83.408 111.347 82.9733 111.922 82.582 112.641C82.3381 112.879 82.1767 113.017 82.0153 113.155C81.6071 113.23 81.1989 113.305 80.713 113.362Z" fill="#7B6AB5"/>
<path d="M82.0795 113.187C82.1767 113.017 82.3381 112.879 82.555 112.713C82.7234 112.805 82.8363 112.926 82.9818 113.104C82.7241 113.18 82.4339 113.2 82.0795 113.187Z" fill="#0F1B22"/>
<path d="M109.621 111.371C113.421 107.909 119.204 109.821 120.469 115.421C121.179 118.565 120.516 121.372 118.359 123.52C116.206 125.663 113.701 126.039 111.147 124.73C108.624 123.436 107.257 121.072 107.144 117.8C107.055 115.206 107.909 113.114 109.621 111.371ZM117.732 119.955C118.786 117.347 118.178 114.647 116.219 113.231C114.348 111.879 111.912 112.365 110.532 114.365C108.975 116.621 109.326 119.833 111.321 121.58C113.378 123.379 116.043 122.763 117.732 119.955Z" fill="#1A2932"/>
<path d="M121.22 113.886C121.169 113.861 121.139 113.812 121.108 113.763C121.153 113.752 121.197 113.741 121.262 113.772C121.281 113.813 121.241 113.862 121.22 113.886Z" fill="#0F1B22"/>
<path d="M106.058 119.69C106.022 119.623 106.055 119.522 106.146 119.374C106.178 119.437 106.152 119.547 106.058 119.69Z" fill="#0F1B22"/>
<path d="M108.568 88.6555C106.252 94.323 103.905 99.9237 101.56 105.525C101.319 106.101 101.087 106.682 100.852 107.348C99.7422 108.79 97.9669 108.941 96.8974 107.773C95.8139 106.589 95.7922 104.219 96.9125 102.901C99.3917 99.9841 101.9 97.1008 104.396 94.2029C104.535 94.0416 104.666 93.8716 105.001 93.4598C104.219 92.6387 103.446 91.8264 102.684 90.8792C102.991 90.3501 103.365 90.0034 103.568 89.5529C104.231 88.0791 104.832 86.5675 105.457 85.0704C106.484 86.2432 107.511 87.4161 108.568 88.6555Z" fill="#25BFB8"/>
<path d="M58.7902 98.6959C57.9409 97.7369 57.0624 96.81 56.2497 95.8109C55.1997 94.5199 55.1503 92.7126 56.2123 91.4605C59.6127 87.4511 63.0518 83.4858 66.4994 79.5311C66.7787 79.2108 67.2367 79.1005 67.6847 78.9983C67.6995 79.3966 67.6891 79.7173 67.576 79.9779C64.9774 85.9641 62.3763 91.949 59.7385 97.9119C59.5811 98.2678 59.1135 98.4389 58.7902 98.6959Z" fill="#2CC7C0"/>
<path d="M58.8205 98.7661C59.1135 98.4389 59.5811 98.2678 59.7385 97.9119C62.3763 91.9489 64.9774 85.9641 67.576 79.9779C67.6891 79.7173 67.6995 79.3966 67.7575 79.0161C68.9647 78.4329 69.8078 79.1805 70.5708 80.1717C69.4812 82.5275 68.4313 84.7669 67.3933 87.0138C67.3385 87.1324 67.3851 87.3142 67.3845 87.4666C65.6088 89.4242 63.8331 91.3819 61.8771 93.5384C63.2575 95.0506 64.4004 96.3025 65.5609 97.7098C64.9285 99.4863 64.3045 101.123 63.6053 102.715C63.4787 103.003 63.0439 103.109 62.7514 103.299C61.4512 101.812 60.151 100.324 58.8205 98.7661Z" fill="#25BFB8"/>
<path d="M62.782 103.369C63.0439 103.109 63.4787 103.003 63.6053 102.715C64.3045 101.123 64.9285 99.4863 65.5918 97.7758C67.1989 99.5153 68.8217 101.311 70.376 103.184C71.4522 104.481 71.3679 106.388 70.2856 107.622C69.2016 108.857 67.5951 108.906 66.4582 107.654C65.2145 106.284 64.0255 104.847 62.782 103.369Z" fill="#19B1AB"/>
<path d="M96.2755 80.6036C97.7952 78.1484 99.4376 78.0043 101.229 80.0824C101.695 80.6231 102.156 81.1692 102.59 81.8329C101.925 83.533 101.323 85.1347 100.624 86.6769C100.467 87.025 99.97 87.1661 99.6293 87.4026C98.6921 86.3407 97.7171 85.3193 96.8289 84.2048C96.0334 83.2067 95.9129 81.9822 96.2755 80.6036Z" fill="#32CFC7"/>
<path d="M99.6575 87.4737C99.97 87.1661 100.467 87.025 100.624 86.6769C101.323 85.1347 101.925 83.533 102.622 81.9021C103.586 82.8785 104.489 83.9058 105.424 85.0017C104.832 86.5675 104.231 88.0791 103.568 89.5529C103.365 90.0034 102.991 90.3501 102.657 90.8095C101.641 89.7647 100.663 88.6548 99.6575 87.4737Z" fill="#2CC7C0"/>
<path d="M67.4445 87.4298C67.3851 87.3142 67.3385 87.1325 67.3933 87.0138C68.4313 84.7669 69.4812 82.5275 70.6006 80.2493C71.3772 81.699 71.2718 82.968 70.2856 84.163C69.3787 85.262 68.4331 86.3181 67.4445 87.4298Z" fill="#23BDB6"/>
<path d="M117.701 120.033C116.043 122.763 113.378 123.379 111.321 121.58C109.326 119.833 108.975 116.621 110.532 114.365C111.912 112.365 114.348 111.879 116.219 113.231C118.178 114.647 118.786 117.347 117.701 120.033ZM112.895 115.974C112.921 116.462 112.948 116.949 112.983 117.576C112.604 117.962 112.481 118.628 112.981 119.209C113.505 119.818 114.224 119.826 114.78 119.28C115.365 118.706 115.255 118.012 114.857 117.577C114.884 116.939 115.059 116.343 114.879 115.993C114.715 115.675 114.175 115.54 113.784 115.484C113.532 115.447 113.249 115.701 112.895 115.974Z" fill="#F3F7F7"/>
<path d="M112.938 115.899C113.249 115.701 113.532 115.447 113.784 115.484C114.175 115.54 114.715 115.675 114.879 115.993C115.059 116.343 114.884 116.939 114.857 117.577C115.255 118.012 115.365 118.706 114.78 119.28C114.224 119.826 113.505 119.818 112.981 119.209C112.481 118.628 112.604 117.962 112.983 117.576C112.948 116.949 112.921 116.462 112.938 115.899Z" fill="#344148"/>
</svg>
